<?xml version="1.0" encoding="UTF-8" standalone="no"?>
<!DOCTYPE svg PUBLIC "-//W3C//DTD SVG 1.1//EN" "http://www.w3.org/Graphics/SVG/1.1/DTD/svg11.dtd">
<!-- Created with Vectornator (http://vectornator.io/) -->
<svg stroke-miterlimit="10" style="fill-rule:nonzero;clip-rule:evenodd;stroke-linecap:round;stroke-linejoin:round;" version="1.1" viewBox="0 0 283.5 283.5" xml:space="preserve" xmlns="http://www.w3.org/2000/svg" xmlns:xlink="http://www.w3.org/1999/xlink">
<defs>
<linearGradient gradientTransform="matrix(1 0 0 1 0 0)" gradientUnits="userSpaceOnUse" id="LinearGradient" x1="28.566" x2="268.83" y1="174.55" y2="174.55">
<stop offset="0" stop-color="#2986cc"/>
<stop offset="1" stop-color="#ccd6dd"/>
</linearGradient>
<linearGradient gradientTransform="matrix(1 0 0 1 0 0)" gradientUnits="userSpaceOnUse" id="LinearGradient_2" x1="73.615" x2="190.01" y1="89.05" y2="89.05">
<stop offset="0" stop-color="#ffffff"/>
<stop offset="1" stop-color="#efefef"/>
</linearGradient>
</defs>
<g id="Untitled">
<g opacity="1">
<path d="M266.1 102.8C264.9 102.4 263.7 102.3 262.5 102.3C257.8 102.3 253.3 103.1 248.8 104.2C245.5 105 242.3 106 239.2 107.5C239.1 105.1 237.7 103.6 235.8 102.5C234.3 101.6 232.5 101.2 230.8 100.9C228.9 100.6 227.2 100 225.9 98.4C225.5 97.9 225 97.6 224.4 97.3C222.6 96.5 221.8 96.7 220.7 98.3C217.9 102.4 215.8 106.8 215.2 111.8C214.6 116.8 215.3 121.6 216.1 126.5C216.2 126.9 216.1 127.1 215.9 127.4C213.6 131.2 211.8 135.9 208.4 138.9C204.3 142.6 176.4 152.3 170.8 152.5C169.7 152.5 119.9 129.1 119.9 128C120 124 78.8 114.6 77.7 115.7C77.3 116.1 77 116.5 77.1 117C77.2 117.5 76.9 117.6 76.5 117.7C74.8 118 73.2 118.4 71.5 118.8C65.9 120 60.6 121.8 56 125.2C50.1 129.5 45.7 135.1 42 141.3C38.6 147 36.7 153.2 36.4 159.9C36.3 162.6 36.4 165.3 36.1 168C36 168.7 35.8 169 35.3 169.3C34.1 170 32.9 170.9 31.8 171.8C29.8 173.5 28.5 175.4 28.6 178.2C28.8 181.5 30 184.1 32.6 186.1C34.9 187.9 37.6 188.8 40.4 189.5C45.4 190.7 50.5 190.9 55.6 190.8C56.3 190.8 56.8 191 57.3 191.5C60.1 194.3 63 196.9 66 199.3C65.9 199.5 65.8 199.8 65.7 200.3C65.2 202.2 64.6 206.3 64.2 208.3C63.4 211.9 62.6 215.5 62.3 219.3C61.6 227.4 63.6 234.7 68.1 241.3C70.2 244.4 72.8 247 75 250C75.3 250.4 75.8 250.8 76.2 251.1C78.8 253 81.9 252.4 83.5 249.7C83.9 249 84.2 248.3 84.5 247.6C85.4 244.9 85.7 242.2 85.9 239.4C86.1 235.9 87.2 232.7 89.5 230C90.7 228.6 91.9 227.2 93.1 225.8C95.1 223.4 96.7 220.8 97.1 217.6C97.2 217 97.5 217.2 97.9 217.3C99.7 217.9 101.5 218.4 103.4 218.9C110.6 220.8 117.9 221.9 125.4 221.1C127.9 220.8 132.2 220.8 134.7 221.3C139.7 228 145.1 234.2 151.5 239.6C154.7 242.3 158.2 244.8 162.2 246.3C165.1 247.4 169.1 247.1 170.9 246.6C174 245.6 176.5 243.4 176.7 240.1C176.8 236.9 175.7 234 174.6 231.2C173 227.3 170.9 223.7 168.8 220C168.6 219.7 168.2 219.4 169 219.2C172.1 218.2 186.4 211.5 189.3 210.1C197.9 206 206 200.2 209.8 197.3C217.4 191.4 224.5 182.6 228.2 173.7C231.6 165.4 232.8 156.6 233.6 147.7C234 143.2 234.5 138.8 234.9 134.3C234.9 133.9 235.1 133.8 235.4 133.8C241.3 133.2 246.7 131 251.8 128C253.9 126.8 255.5 125 256.5 122.9C257.4 121.2 258.2 119.4 259 117.7C259.9 115.7 261.2 114.2 263 113C263.8 112.5 264.6 111.9 265.4 111.3C266.6 110.4 267.8 109.4 268.6 108C269.5 105.8 268.7 103.7 266.1 102.8Z" fill="url(#LinearGradient)" fill-rule="nonzero" opacity="1" stroke="none"/>
<path d="M188.4 150.8C188.5 146.8 190.8 134 189.7 130.2C186.7 120.3 180.8 112.3 173.1 105.6C169.8 102.7 166.3 100.3 162.6 98.1C161.6 97.5 161.4 97 161.8 95.9C163.4 91.3 164.2 86.5 164.4 81.6C164.6 75.2 163.3 69.1 161.4 63.1C159.6 57.4 157.3 51.9 153.5 47.2C152.9 46.5 152.7 45.8 152.6 45C152.5 44.3 152.5 43.7 152.4 43C151.9 39.5 151 36.2 149.1 33.2C146.6 29.2 143.1 26.7 138.3 26.5C132.2 26.2 127.1 28.7 123.2 33.4C122.7 34 122.2 34.3 121.5 34.3C119.9 34.4 118.3 34.6 116.7 35C110.1 36.3 104 38.8 98.3 42.2C97.8 42.5 97.6 42.5 97.2 42.1C96.4 41.3 95.5 40.7 94.5 40.1C85.9 35.2 77.2 40.2 74.7 47.4C73.5 50.8 73.5 54.5 73.8 58.1C74 60.4 74.4 62.6 75.7 64.5C76.1 65 76.1 65.3 75.7 65.8C73.6 69.1 73.2 72.6 74 76.3C74.5 79 75.1 81.6 75.2 84.4C75.3 86.9 75.6 89.5 76.3 91.9C76.5 92.5 76.4 92.8 76.1 93.3C73.8 96.5 73.5 99.9 75 103.5C75.8 105.3 76.8 107 78.1 108.5C79.2 109.9 80.4 111.2 81.6 112.5C80.2 113.4 101.7 119.7 102.1 119.9C108.1 122.4 158.9 146.9 160.4 147.7C169 152.3 188.4 152 188.4 150.8Z" fill="url(#LinearGradient_2)" fill-rule="nonzero" opacity="1" stroke="none"/>
</g>
<g opacity="1">
<path d="M122.2 92C124.6 91.5 127.1 90.8 129.5 90.2C134 89 138.5 88 143.1 87.9C143.8 87.9 144.5 88 145.3 88C146 88 146.6 87.9 147 87.3C147.8 86 148.7 84.6 149.2 83.1C149.8 81.2 149.4 79.5 147.9 78.1C147.2 77.4 146.3 77 145.3 76.6C143.4 75.9 141.4 75.7 139.4 75.5C136.9 75.3 134.8 74.6 132.9 72.8C131.9 71.8 130.8 70.9 129.8 70C127.7 68.1 125.7 66.3 123.1 65C121.1 64 119 63.5 116.8 64.1C113.2 65 110.5 67.2 109 70.5C106.1 76.8 107.2 82.8 111.5 88.2C114.2 91.8 117.8 92.9 122.2 92Z" fill="#000000" fill-rule="nonzero" opacity="1" stroke="none"/>
<path d="M104.2 103.2C104.5 103.3 104.9 103.4 105.2 103.6C106.5 104.1 107.7 104.8 109.1 105.1C110.6 105.5 111.9 105.6 113.1 104.2C114.7 102.3 116.4 100.4 117.9 98.4C118.2 98 118.3 97.7 117.7 97.5C117.1 97.3 116.6 97 116 96.6C115.5 96.3 115.3 96.4 114.9 96.9C114 98.2 113.1 99.3 112 100.5C111.7 99.2 111.1 98.2 110.6 97.1C110.1 96 109.9 94.9 110.5 93.7C110.8 93.1 110.8 92.4 110.3 91.8C109.8 91.2 109.1 91.2 108.4 91.4C107.2 91.8 106 92.3 104.8 92.9C104.4 93.1 104.4 93.2 104.5 93.6C104.8 94.3 105.2 95 105.4 95.7C105.6 96.1 105.8 96.2 106.1 96C106.3 95.9 106.4 95.8 106.7 95.8C106.8 97.8 108.1 99.4 108.6 101.5C107.3 101 106.2 100.5 105 100.1C103.1 99.5 103.1 99.5 102.9 101.4C102.8 102.7 102.8 102.7 104.2 103.2Z" fill="#000000" fill-rule="nonzero" opacity="1" stroke="none"/>
<path d="M266.1 102.8C264.9 102.4 263.7 102.3 262.5 102.3C257.8 102.3 253.3 103.1 248.8 104.2C245.5 105 242.3 106 239.2 107.5C239.1 105.1 237.7 103.6 235.8 102.5C234.3 101.6 232.5 101.2 230.8 100.9C228.9 100.6 227.2 100 225.9 98.4C225.5 97.9 225 97.6 224.4 97.3C222.6 96.5 221.8 96.7 220.7 98.3C217.9 102.4 215.8 106.8 215.2 111.8C214.6 116.8 215.3 121.6 216.1 126.5C216.2 126.9 216.1 127.1 215.9 127.4C213.6 131.2 210.7 134.6 207.3 137.6C203.2 141.3 198.4 143.4 192.8 143.6C191.7 143.6 191.3 143.3 191.3 142.1C191.4 138.1 190.8 134.1 189.7 130.3C186.7 120.4 180.8 112.4 173.1 105.7C169.8 102.8 166.3 100.4 162.6 98.2C161.6 97.6 161.4 97.1 161.8 96C163.4 91.4 164.2 86.6 164.4 81.7C164.6 75.3 163.3 69.2 161.4 63.2C159.6 57.5 157.3 52 153.5 47.3C152.9 46.6 152.7 45.9 152.6 45.1C152.5 44.4 152.5 43.8 152.4 43.1C151.9 39.6 151 36.3 149.1 33.3C146.6 29.3 143.1 26.8 138.3 26.6C132.2 26.3 127.1 28.8 123.2 33.5C122.7 34.1 122.2 34.4 121.5 34.4C119.9 34.5 118.3 34.7 116.7 35.1C110.1 36.4 104 38.9 98.3 42.3C97.8 42.6 97.6 42.6 97.2 42.2C96.4 41.4 95.5 40.8 94.5 40.2C85.9 35.3 77.2 40.3 74.7 47.5C73.5 50.9 73.5 54.6 73.8 58.2C74 60.5 74.4 62.7 75.7 64.6C76.1 65.1 76.1 65.4 75.7 65.9C73.6 69.2 73.2 72.7 74 76.4C74.5 79.1 75.1 81.7 75.2 84.5C75.3 87 75.6 89.6 76.3 92C76.5 92.6 76.4 92.9 76.1 93.4C73.8 96.6 73.5 100 75 103.6C75.8 105.4 76.8 107.1 78.1 108.6C79.2 110 80.4 111.3 81.6 112.6C80.2 113.5 79 114.5 77.9 115.7C77.5 116.1 77.2 116.5 77.3 117C77.4 117.5 77.1 117.6 76.7 117.7C75 118 73.4 118.4 71.7 118.8C66.1 120 60.8 121.8 56.2 125.2C50.3 129.5 45.9 135.1 42.2 141.3C38.8 147 36.9 153.2 36.6 159.9C36.5 162.6 36.6 165.3 36.3 168C36.2 168.7 36 169 35.5 169.3C34.3 170 33.1 170.9 32 171.8C30 173.5 28.7 175.4 28.8 178.2C29 181.5 30.2 184.1 32.8 186.1C35.1 187.9 37.8 188.8 40.6 189.5C45.6 190.7 50.7 190.9 55.8 190.8C56.5 190.8 57 191 57.5 191.5C60.3 194.3 63.2 196.9 66.2 199.3C66.1 199.5 66 199.8 65.9 200.3C65.4 202.2 64.8 206.3 64.4 208.3C63.6 211.9 62.8 215.5 62.5 219.3C61.8 227.4 63.8 234.7 68.3 241.3C70.4 244.4 73 247 75.2 250C75.5 250.4 76 250.8 76.4 251.1C79 253 82.1 252.4 83.7 249.7C84.1 249 84.4 248.3 84.7 247.6C85.6 244.9 85.9 242.2 86.1 239.4C86.3 235.9 87.4 232.7 89.7 230C90.9 228.6 92.1 227.2 93.3 225.8C95.3 223.4 96.9 220.8 97.3 217.6C97.4 217 97.7 217.2 98.1 217.3C99.9 217.9 101.7 218.4 103.6 218.9C110.8 220.8 118.1 221.9 125.6 221.1C128.1 220.8 132.4 220.8 134.9 221.3C139.9 228 145.3 234.2 151.7 239.6C154.9 242.3 158.4 244.8 162.4 246.3C165.3 247.4 169.3 247.1 171.1 246.6C174.2 245.6 176.7 243.4 176.9 240.1C177 236.9 175.9 234 174.8 231.2C173.2 227.3 171.1 223.7 169 220C168.8 219.7 168.4 219.4 169.2 219.2C172.3 218.2 186.6 211.5 189.5 210.1C198.1 206 206.2 200.2 210 197.3C217.6 191.4 224.7 182.6 228.4 173.7C231.8 165.4 233 156.6 233.8 147.7C234.2 143.2 234.7 138.8 235.1 134.3C235.1 133.9 235.3 133.8 235.6 133.8C241.5 133.2 246.9 131 252 128C254.1 126.8 255.7 125 256.7 122.9C257.6 121.2 258.4 119.4 259.2 117.7C260.1 115.7 261.4 114.2 263.2 113C264 112.5 264.8 111.9 265.6 111.3C266.8 110.4 268 109.4 268.8 108C269.5 105.8 268.7 103.7 266.1 102.8ZM166.8 120.1C168 114.7 167.2 109.5 165.3 104.5C165.2 104.2 165.1 104 165.1 103.6C171.7 108 177.3 113.4 181.6 120.1C186.2 127.2 188.1 134.7 188.1 140.2C188.1 140.2 188.1 140.3 188 140.3C186.1 139.6 184.1 139.2 182.1 139.1C175.6 138.7 169.4 139.7 163.5 142.5C162.1 143.2 160.8 144.1 159.8 145.4C159.6 145.6 159.5 145.9 159.1 145.7C156.9 144.7 154.8 143.7 152.5 142.7C152.4 142.7 152.4 142.6 152.5 142.6C155.3 141.5 157.4 139.7 159 137.4C162.6 132.1 165.4 126.4 166.8 120.1ZM79.2 104.6C78.1 103 77.3 101.3 77.3 99.3C77.3 97.6 78 96.1 79.1 94.7C79.4 95.3 79.7 95.8 80 96.3C81.1 98.2 82.5 100 84.3 101.4C87.5 103.7 91.2 103.6 94.2 101.1C97.1 98.7 98.6 95.5 99.4 91.9C100.3 87.2 99.7 82.8 96.7 78.8C94.9 76.5 92.8 74.8 89.7 74.7C86.4 74.6 84.1 76.3 82.2 78.7C79.9 81.7 79.2 85 79.5 88.7C79.5 88.9 79.8 89.3 79.4 89.4C78.9 89.5 79 89 79 88.7L78.1 80C77.9 78.2 77.5 76.4 77.1 74.7C76.7 72.5 76.9 70.3 78.1 68.3C80.5 64.2 83 60.3 86.3 56.9C88.9 54.2 91.3 51.3 94.2 49C101.5 43.2 109.7 39.4 118.9 37.9C119.5 37.8 120.1 37.7 120.9 37.6C120.3 39.8 120.4 41.8 121.3 43.8C121.7 44.6 122.3 45.1 123.2 45C123.9 44.9 124.6 45.2 125.2 45.5C128.4 47 131.1 49.1 133.9 51.2C137.3 53.8 140.7 56.5 144 59.1C145.6 60.4 146 60.3 147.5 59C149.9 57 151.7 54.5 152.3 51.3C153.4 52.9 154.3 54.5 155.1 56.2C157.8 62.3 160 68.6 160.7 75.2C161.5 82.1 160.7 88.8 158.3 95.4C158.1 95.9 157.7 96.2 157.4 96.6C153.1 100.3 148.1 102.7 142.7 104.3C139.7 105.2 136.9 106.5 134.2 108C132.8 108.8 131.6 109.8 130.9 111.2C129.7 113.7 127.6 114.4 125 114.4C122.5 114.5 119.9 114.5 117.4 114.9C113.2 115.6 110.1 117.6 108.9 122C105.9 118.2 102.3 115.1 98 113C94.8 111.4 91.5 110.5 87.9 110.7C87 110.8 86.1 110.9 85.2 111.2C84.9 111.3 84.6 111.3 84.4 111C82.6 108.9 80.7 106.9 79.2 104.6ZM93.8 216.8C93.6 218.7 92.9 220.4 91.8 222C90.7 223.7 89.3 225.2 88 226.7C85.7 229.4 83.6 232.2 83 235.8C82.6 238.4 82.4 241 82 243.5C81.8 245.1 81.5 246.6 80.7 248C80 249.3 78.9 249.4 77.8 248.5C77.4 248.2 77.1 247.8 76.8 247.4C75.5 245.5 73.9 243.8 72.4 242C66.4 234.5 64.2 226.1 65.7 216.6C66.1 214 66.8 211.4 67.3 208.8C67.6 207.1 68.3 203.6 68.6 201.8C76.1 207.5 84.2 212.3 93.1 215.8C93.8 216 93.9 216.2 93.8 216.8ZM235.5 114.9C235.2 116.1 234.7 117 233.8 117.8C232.7 118.8 231.6 119.8 230.5 120.9C228.4 123 227.4 125.6 227.4 128.6C227.4 130.9 228.5 132.5 230.6 133.3C231.1 133.5 231.3 133.7 231.2 134.3C230.4 141.4 230 148.5 229 155.5C228 162.9 226.3 170.1 222.7 176.7C219.2 183.4 214.1 188.7 208.3 193.5C201.6 198.9 195 204.2 174.9 213.2C172.4 214.3 169.8 215.5 167.2 216.3C166.7 216.4 166.2 216.3 166 215.9C163.5 212.2 162.6 208 162 203.7C161.5 200 161 196.2 159.7 192.7C157.6 186.9 153.6 183.3 147.4 182.3C145.6 182 145.6 182 145.3 183.9C145.1 185.2 145.1 185.3 146.4 185.5C152.7 186.3 155.8 190.3 157.3 196.1C158.2 199.5 158.5 202.9 159.1 206.4C159.7 210.1 160.7 213.5 162.7 216.8C165.6 221.7 168.6 226.6 170.9 231.8C172 234.3 173 236.7 173.2 239.5C173.4 242 170.9 243.3 170.8 243.4C168.5 244.7 165 244.2 162.8 243.4C159.7 242.2 157 240.3 154.5 238.2C145.2 230.4 137.6 221.1 131.4 210.6C128.8 206.2 128.4 201.3 128.9 196.3C129.3 192.1 130.5 188 132.2 184.1C132.4 183.6 132.4 183.3 131.9 183.2C131.1 182.9 130.2 182 129.5 182.4C128.9 182.7 128.7 183.8 128.4 184.6C127.7 186.3 127.2 188.1 126.7 189.9C126.3 189.7 125.9 189.5 125.7 189.5C124 188.8 122.4 188 120.7 187.3C116.1 185.3 111.5 183.6 107.1 181.1C103.5 179.1 100.2 176.7 97.6 173.5C97.3 173.1 96.9 172.9 97.2 172.2C98.2 169.8 98 167.5 96.4 165.5C94.6 163.2 92 162.5 89.2 162.4C85.1 162.3 80.1 164.7 79.3 170.8C78.7 175.8 81.9 179.1 86.8 178.3C89.4 177.9 91.8 176.9 94.1 175.4C94.4 175.2 94.6 175 95 175.4C98.6 179.9 103.3 182.9 108.4 185.4C113.1 187.7 117.9 189.5 122.6 191.6C123.2 191.9 124.9 192.6 126 193C125.4 196.3 125.2 199.7 125.6 203.2C125.9 206.4 127 209.4 128.5 212.2C129.6 214.2 130.8 216.1 132.1 218.1C130.7 218.1 129.4 217.9 128.1 218C125.5 218.2 122.8 218.3 120.2 218.4C114.9 218.6 109.7 217.4 104.6 216.2C102.3 215.6 100 214.9 97.7 214.1C97.3 213.9 97.4 214 96.8 213.8C96.3 213.6 96.2 213.5 95.7 213.3C95.1 213.1 95.1 213.1 94.4 212.8C94 212.7 93.6 212.5 93.2 212.3C84.9 208.9 77.3 204.3 70.2 198.8C66.2 195.7 62.5 192.4 58.9 188.8C58.3 188.2 57.5 187.9 56.7 187.9C52 188 47.3 187.9 42.7 187C40.3 186.5 37.9 185.9 35.7 184.6C34.4 183.8 33.3 182.9 32.6 181.4C34.1 181.7 35.5 182 37 182.2C41.4 182.6 45.9 182.3 50.3 181.8C55.2 181.2 60.1 180.3 64.8 179C68.4 178 71.8 176.8 75 174.9C75.2 174.8 75.5 174.6 75.8 174.4C76.4 174 76.4 174 76.6 173.9C76.9 173.7 77.5 173.3 77.6 173C77.8 172.6 77.9 172.5 77.5 172C76.7 171.1 75.1 170.8 74.4 171.3C70.6 174.1 66.1 175.3 61.6 176.4C53.8 178.3 45.9 179.3 37.8 179C36.4 178.9 34.9 178.7 33.6 178.2C31.6 177.5 31.7 177.2 33.1 175.7C34.4 174.3 35.9 173.1 37.6 172.3C39.7 171.2 39.5 169.4 39.6 166.9C39.7 165.3 39.7 163.6 39.7 162C39.7 154.8 41.8 148.3 45.6 142.3C48.9 137 52.8 132.2 57.8 128.4C62.1 125.2 66.9 123.5 72 122.4C74.5 121.9 76.9 121.3 79.4 120.7C79.7 120.6 80 120.6 80.2 120.8C83.8 123.1 87.8 124.2 91.9 124.9C95.7 125.6 99.5 125.9 103.4 125.5C105.2 125.3 107.1 125.1 108.7 124.1C108.8 126.6 109.7 128.8 111.1 130.8C114 135 117.9 138.1 122.5 140.2C125.7 141.7 128.8 141.4 132 140.3C133.8 139.7 135.6 139 137.6 138.9C138.8 138.9 139.8 139.2 140.7 139.8C141.4 140.3 142.1 140.8 142.8 141.4C144.5 142.6 145.5 143 147.2 144.1C148.4 144.7 148.6 144.9 149.3 145.2C151.7 146.3 154 147.4 156.4 148.4C157 148.7 157.3 149 157.5 149.7C158 152.1 159.1 154.2 160.2 156.4C161 158 161.9 159.6 162.7 161.2C164.5 164.6 164.7 168.3 164.2 172.1C163.6 176.7 162.3 181.1 161.5 185.7C161 188.7 160.6 191.8 161.1 194.9C161.2 195.4 161.4 195.9 161.7 196.3C163.7 199 166.1 201.1 169.7 201.2C172.6 201.3 175.3 200.7 178.1 200.1C182.7 199.1 187.1 197.7 191 195.1C192.9 193.9 194.5 192.5 196.1 190.9C198.3 188.6 198.6 185.6 197.3 182.7C195.8 179.2 195 175.6 197.3 171.9C199.1 169.1 199.9 165.9 199.5 162.5C199.2 159.9 198.3 157.5 197.4 155.1C196.4 152.4 195.2 149.7 193.8 147.1C195.6 146.9 197.3 146.7 199 146.2C204.8 144.5 209.4 140.9 213.4 136.3C215.3 134.2 217 131.9 218.5 129.5C223.7 121.5 221.4 124 228.7 118.6C230.4 117.3 232.2 116.1 233.9 114.8C234.1 114.6 234.3 114.5 234.6 114.5C235.4 114.1 235.7 114.2 235.5 114.9ZM88.9 170.7C90 171.6 91.2 172 92.8 171.9C90.9 173.3 88.9 174.2 86.8 174.6C86.1 174.7 85.3 174.9 84.6 174.7C83.3 174.4 82.7 173.9 82.5 172.6C82 168.5 84.5 165.4 88.7 165.4C86.8 167.1 86.8 169 88.9 170.7Z" fill="#000000" fill-rule="nonzero" opacity="1" stroke="none"/>
</g>
</g>
</svg>
